<?xml version="1.0" standalone="no"?>
<!DOCTYPE svg PUBLIC "-//W3C//DTD SVG 20010904//EN"
 "http://www.w3.org/TR/2001/REC-SVG-20010904/DTD/svg10.dtd">
<svg version="1.0" xmlns="http://www.w3.org/2000/svg"
 width="700.000000pt" height="700.000000pt" viewBox="0 0 700.000000 700.000000"
 preserveAspectRatio="xMidYMid meet">
<metadata>
Created by potrace 1.14, written by Peter Selinger 2001-2017
</metadata>
<g transform="translate(0.000000,700.000000) scale(0.100000,-0.100000)"
fill="#000000" stroke="none">
<path d="M4088 5613 c-97 -98 -226 -230 -288 -293 -62 -63 -302 -308 -535
-545 -232 -236 -497 -506 -589 -600 l-167 -170 280 -275 c247 -244 853 -839
1216 -1195 72 -70 300 -294 508 -499 630 -618 721 -706 727 -706 7 0 114 107
407 407 204 208 778 793 1101 1121 l252 257 -254 250 c-537 527 -1033 1014
-1131 1110 -56 55 -288 282 -514 505 -659 647 -826 809 -832 810 -3 0 -85 -80
-181 -177z"/>
<path d="M2842 5598 c-83 -84 -213 -216 -288 -293 -75 -77 -329 -335 -563
-574 -487 -496 -671 -684 -721 -736 l-34 -36 186 -182 c103 -100 347 -339 543
-532 196 -192 420 -412 498 -489 78 -76 259 -254 403 -395 841 -826 1096
-1076 1099 -1076 7 0 68 60 239 234 l178 183 -150 146 c-130 127 -447 438
-1013 994 -489 480 -910 893 -1044 1023 l-154 151 181 184 c99 102 359 367
578 590 549 560 580 591 580 599 0 7 -357 361 -364 361 -2 0 -71 -69 -154
-152z"/>
<path d="M1443 5383 c-171 -175 -375 -383 -453 -463 -79 -80 -323 -329 -544
-554 -220 -225 -411 -419 -424 -431 l-23 -21 413 -406 c227 -223 469 -461 538
-528 69 -67 303 -297 520 -510 217 -214 520 -511 673 -662 154 -150 349 -341
435 -425 l155 -152 201 205 c111 113 202 209 204 213 3 10 81 -67 -955 947
-83 82 -321 316 -528 519 -207 204 -488 479 -623 612 l-247 242 147 148 c80
81 217 220 303 308 173 177 879 896 890 907 7 6 -344 359 -364 366 -4 1 -147
-141 -318 -315z"/>
</g>
</svg>
