<svg width="601" height="64" viewBox="0 0 601 64" fill="none" xmlns="http://www.w3.org/2000/svg">
<path d="M25.5352 1.46833L0.958496 26.5169L39.1277 63.9672L44.9032 58.0809L11.9356 25.7342L30.7369 6.57199L25.5352 1.46833Z" fill="white"/>
<path d="M42.7908 0.781931L18.214 25.8305L56.3833 63.2808L62.1587 57.3945L29.1911 25.0478L47.9924 5.88559L42.7908 0.781931Z" fill="white"/>
<path d="M35.9957 25.2314L60.5725 0.182861L98.7417 37.6331L74.165 62.6817L35.9957 25.2314Z" fill="#41E5B4"/>
<path d="M143.917 52.2377C137.498 52.2377 132.624 50.5535 129.295 47.1853C125.967 43.817 124.302 39.1411 124.302 33.1575C124.302 26.8173 125.986 21.8442 129.355 18.2382C132.723 14.5926 137.736 12.7697 144.393 12.7697C146.691 12.7697 148.772 12.9084 150.634 13.1858C152.497 13.4236 154.26 13.8198 155.924 14.3746V21.2696C154.26 20.6752 152.497 20.2591 150.634 20.0214C148.811 19.744 146.929 19.6053 144.987 19.6053C140.43 19.6053 137.201 20.7346 135.299 22.9934C133.397 25.2124 132.446 28.6005 132.446 33.1575C132.446 41.3602 136.309 45.4615 144.036 45.4615C145.384 45.4615 146.691 45.3625 147.959 45.1643C149.267 44.9266 150.416 44.6294 151.407 44.2727V35.3568H142.491V30.245H158.183V48.9685C156.875 49.8006 155.052 50.5535 152.714 51.2272C150.377 51.9008 147.444 52.2377 143.917 52.2377Z" fill="white"/>
<path d="M162.555 51.6433L177.177 13.3641H185.974L200.537 51.6433H192.215L188.59 42.4301H174.502L170.936 51.6433H162.555ZM175.691 36.2484H187.401L181.516 20.8535L175.691 36.2484Z" fill="white"/>
<path d="M206.118 51.6433V13.3641H214.202L225.436 36.3673L236.67 13.3641H244.694V51.6433H236.67V26.7381L227.754 45.0455H223.117L214.142 26.7381V51.6433H206.118Z" fill="white"/>
<path d="M251.452 51.6433V13.3641H278.913V19.6053H259.476V29.4128H276.714V35.5946H259.476V45.4615H278.913V51.6433H251.452Z" fill="white"/>
<path d="M296.368 52.2377C293.912 52.2377 291.613 52.0593 289.473 51.7027C287.373 51.3461 285.55 50.8309 284.005 50.1573V43.084C285.749 43.7972 287.631 44.3718 289.652 44.8077C291.673 45.2436 293.654 45.4615 295.596 45.4615C298.37 45.4615 300.41 45.204 301.718 44.6888C303.026 44.1737 303.68 43.0047 303.68 41.1819C303.68 40.0327 303.402 39.1213 302.847 38.4477C302.293 37.774 301.322 37.1796 299.935 36.6645C298.588 36.1097 296.666 35.4955 294.169 34.8218C290.167 33.7123 287.353 32.3254 285.729 30.6611C284.104 28.9968 283.292 26.6984 283.292 23.7661C283.292 20.2393 284.58 17.5249 287.155 15.6228C289.731 13.7208 293.476 12.7697 298.389 12.7697C300.688 12.7697 302.828 12.9282 304.809 13.2453C306.79 13.5623 308.395 13.9387 309.624 14.3746V21.4479C306.374 20.2195 302.986 19.6053 299.459 19.6053C296.963 19.6053 295.001 19.8827 293.575 20.4375C292.148 20.9526 291.435 22.0621 291.435 23.7661C291.435 24.7567 291.693 25.5493 292.208 26.1437C292.723 26.7381 293.595 27.273 294.823 27.7485C296.091 28.224 297.854 28.759 300.113 29.3534C303.244 30.1856 305.661 31.1762 307.365 32.3254C309.069 33.4745 310.238 34.7822 310.872 36.2484C311.545 37.7146 311.882 39.3591 311.882 41.1819C311.882 44.5105 310.614 47.1853 308.078 49.2062C305.542 51.2272 301.639 52.2377 296.368 52.2377Z" fill="white"/>
<path d="M329.323 51.6433L343.945 13.3641H352.742L367.305 51.6433H358.983L355.357 42.4301H341.27L337.704 51.6433H329.323ZM342.459 36.2484H354.168L348.284 20.8535L342.459 36.2484Z" fill="white"/>
<path d="M372.885 51.6433V13.3641H380.91V45.4615H399.752V51.6433H372.885Z" fill="white"/>
<path d="M404.172 51.6433V13.3641H412.256L423.49 36.3673L434.724 13.3641H442.749V51.6433H434.724V26.7381L425.808 45.0455H421.172L412.197 26.7381V51.6433H404.172Z" fill="white"/>
<path d="M448.318 51.6433L462.94 13.3641H471.737L486.3 51.6433H477.978L474.353 42.4301H460.265L456.699 51.6433H448.318ZM461.454 36.2484H473.164L467.279 20.8535L461.454 36.2484Z" fill="white"/>
<path d="M491.881 51.6433V13.3641H498.835L516.964 38.8637V13.3641H524.989V51.6433H518.034L499.905 26.1437V51.6433H491.881Z" fill="white"/>
<path d="M530.57 51.6433L545.192 13.3641H553.989L568.552 51.6433H560.23L556.604 42.4301H542.517L538.951 51.6433H530.57ZM543.706 36.2484H555.416L549.531 20.8535L543.706 36.2484Z" fill="white"/>
<path d="M589.546 52.2377C583.127 52.2377 578.213 50.5139 574.805 47.0664C571.397 43.5793 569.693 38.8439 569.693 32.8603C569.693 26.5201 571.338 21.5866 574.627 18.0599C577.955 14.5331 582.909 12.7697 589.487 12.7697C591.785 12.7697 593.846 12.9481 595.668 13.3047C597.531 13.6217 599.274 14.0774 600.899 14.6718V21.6857C597.531 20.2988 593.925 19.6053 590.081 19.6053C585.722 19.6053 582.592 20.695 580.69 22.8745C578.788 25.0539 577.836 28.3825 577.836 32.8603C577.836 41.2611 581.958 45.4615 590.2 45.4615C592.062 45.4615 593.905 45.303 595.728 44.986C597.551 44.6294 599.294 44.1142 600.959 43.4406V50.5139C599.334 51.0291 597.59 51.4451 595.728 51.7621C593.905 52.0792 591.844 52.2377 589.546 52.2377Z" fill="white"/>
</svg>
